<svg id="Layer_1" data-name="Layer 1" xmlns="http://www.w3.org/2000/svg" viewBox="0 0 536.18 427.76"><defs><style>.cls-1{fill:#1c3578;}.cls-2{fill:#0d192d;}.cls-3{font-size:22.56px;fill:#da693c;font-family:Ruberoid-Light, Ruberoid;font-weight:300;letter-spacing:0.2em;}.cls-4{letter-spacing:0.15em;}</style></defs><polygon class="cls-1" points="230.63 18.79 153.98 229.59 214.78 222.07 267 0 230.63 18.79"/><polygon class="cls-1" points="307.33 18.8 383.73 229.59 323 222.01 270.77 0 307.33 18.8"/><polygon class="cls-1" points="264.01 9.57 273.46 9.57 270.77 0 267 0 264.01 9.57"/><polygon class="cls-1" points="268.94 171.49 209.85 178.84 202.1 223.61 268.94 215.31 268.94 171.49"/><polygon class="cls-1" points="268.94 127.57 268.94 171.39 328.31 164.01 323.18 120.83 268.94 127.57"/><path class="cls-2" d="M23.69,383.15H0l43.2-97.56h25l43.2,97.56H87.66l-7.11-16.31H30.8Zm32.05-73.86L39.86,345.94H71.63Z"/><path class="cls-2" d="M304.4,284.2c17.56,0,30.38,3.9,38.32,11.85s11.85,20.76,11.85,38.32-3.9,30.24-11.85,38.18-20.76,12-38.32,12-30.24-4-38.19-12-12-20.62-12-38.18,4-30.38,12-38.32S286.84,284.2,304.4,284.2Zm-27.87,50.17c0,10.17,2.23,17.7,6.69,22.3,4.31,4.6,11.42,7,21.18,7s16.86-2.36,21.32-7,6.55-12.13,6.55-22.3-2.23-17.7-6.55-22.3-11.57-7-21.32-7-16.87,2.37-21.18,7C278.76,316.67,276.53,324.2,276.53,334.37Z"/><path class="cls-2" d="M379,285.59h23l22.29,69.68,21.47-69.68h23.69L491,355.27l22.15-69.68h23l-32.75,97.56H478.48l-20.9-65.78-20.9,65.78H411.73Z"/><rect class="cls-2" x="140.64" y="285.63" width="22.35" height="97.64"/><polygon class="cls-2" points="210.29 285.92 188.81 292.55 206.15 342.74 228.99 339.87 210.29 285.92"/><polygon class="cls-2" points="206.21 342.8 184.33 345.55 196.79 383.08 221.26 383.18 206.21 342.8"/><rect class="cls-2" x="174.2" y="270.43" width="20.7" height="51.36" transform="translate(-111.56 480.66) rotate(-90)"/><text class="cls-3" transform="translate(85.69 421.1)">BUILDING SO<tspan class="cls-4" x="211.24" y="0">L</tspan><tspan x="230.35" y="0">UTIONS</tspan></text></svg>