<svg width="64" height="49" viewBox="0 0 64 49" fill="none" xmlns="http://www.w3.org/2000/svg">
<mask id="mask0_1_515" style="mask-type:luminance" maskUnits="userSpaceOnUse" x="0" y="33" width="14" height="12">
<path d="M0.486465 33.2506H13.6143V44.3899H0.486465V33.2506Z" fill="white"/>
</mask>
<g mask="url(#mask0_1_515)">
<mask id="mask1_1_515" style="mask-type:luminance" maskUnits="userSpaceOnUse" x="0" y="33" width="14" height="12">
<path d="M5.56433 33.2506L0.486465 44.3456H3.27089L4.10665 42.4922H9.957L10.7928 44.3456H13.5794L8.49932 33.2506H5.56433ZM7.03946 35.9441L8.90739 40.1132H5.17373L7.03946 35.9441Z" fill="white"/>
</mask>
<g mask="url(#mask1_1_515)">
<path d="M0.486465 33.2506H13.5685V44.3456H0.486465V33.2506Z" fill="#EBF1FF"/>
</g>
</g>
<mask id="mask2_1_515" style="mask-type:luminance" maskUnits="userSpaceOnUse" x="17" y="33" width="3" height="12">
<path d="M17.0228 33.2548H19.6501V44.3604H17.0228V33.2548Z" fill="white"/>
</mask>
<g mask="url(#mask2_1_515)">
<path d="M16.4336 32.6849H27.999V44.9219H16.4336V32.6849Z" fill="#EBF1FF"/>
</g>
<mask id="mask3_1_515" style="mask-type:luminance" maskUnits="userSpaceOnUse" x="22" y="33" width="6" height="7">
<path d="M22.6681 33.2548H27.4099V39.7649H22.6681V33.2548Z" fill="white"/>
</mask>
<g mask="url(#mask3_1_515)">
<mask id="mask4_1_515" style="mask-type:luminance" maskUnits="userSpaceOnUse" x="22" y="33" width="6" height="7">
<path d="M25.2103 33.2865L22.6877 34.0422L24.7237 39.7523L27.4099 39.423L25.2103 33.2865Z" fill="white"/>
</mask>
<g mask="url(#mask4_1_515)">
<path d="M16.4337 32.6849H27.9991V44.9219H16.4337V32.6849Z" fill="#EBF1FF"/>
</g>
</g>
<mask id="mask5_1_515" style="mask-type:luminance" maskUnits="userSpaceOnUse" x="22" y="39" width="5" height="6">
<path d="M22.1247 39.7206H26.5064V44.3541H22.1247V39.7206Z" fill="white"/>
</mask>
<g mask="url(#mask5_1_515)">
<mask id="mask6_1_515" style="mask-type:luminance" maskUnits="userSpaceOnUse" x="22" y="39" width="5" height="6">
<path d="M24.7325 39.7565L22.1597 40.0689L23.6261 44.3393L26.5022 44.3499L24.7325 39.7565Z" fill="white"/>
</mask>
<g mask="url(#mask6_1_515)">
<path d="M16.4337 32.6849H27.9991V44.9219H16.4337V32.6849Z" fill="#EBF1FF"/>
</g>
</g>
<mask id="mask7_1_515" style="mask-type:luminance" maskUnits="userSpaceOnUse" x="19" y="33" width="7" height="3">
<path d="M19.1657 33.2696H25.2038V35.6233H19.1657V33.2696Z" fill="white"/>
</mask>
<g mask="url(#mask7_1_515)">
<path d="M16.4336 32.6849H27.999V44.9219H16.4336V32.6849Z" fill="#EBF1FF"/>
</g>
<mask id="mask8_1_515" style="mask-type:luminance" maskUnits="userSpaceOnUse" x="30" y="33" width="13" height="12">
<path d="M30.3776 33.0923H42.2223V44.504H30.3776V33.0923Z" fill="white"/>
</mask>
<g mask="url(#mask8_1_515)">
<mask id="mask9_1_515" style="mask-type:luminance" maskUnits="userSpaceOnUse" x="30" y="33" width="13" height="12">
<path d="M33.0005 38.7981C33.0005 39.9549 33.2624 40.812 33.7861 41.3355C34.2946 41.8569 35.1303 42.1271 36.2759 42.1271C37.4238 42.1271 38.2595 41.8569 38.7832 41.3355C39.2917 40.812 39.5535 39.957 39.5535 38.7981C39.5535 37.6392 39.2917 36.7843 38.7832 36.2608C38.2595 35.7394 37.4238 35.4692 36.2759 35.4692C35.1303 35.4692 34.2946 35.7394 33.7861 36.2608C33.2624 36.7843 33.0005 37.6392 33.0005 38.7981ZM36.2759 33.0923C38.3424 33.0923 39.8481 33.5356 40.7821 34.4391C41.7161 35.3426 42.1765 36.7991 42.1765 38.796C42.1765 40.7951 41.7182 42.2368 40.7821 43.1403C39.8481 44.0459 38.3424 44.504 36.2759 44.504C34.2116 44.504 32.7212 44.0459 31.7873 43.1403C30.8533 42.2368 30.3776 40.7951 30.3776 38.7981C30.3776 36.8012 30.8533 35.3426 31.7873 34.4391C32.7234 33.5335 34.2116 33.0923 36.2759 33.0923Z" fill="white"/>
</mask>
<g mask="url(#mask9_1_515)">
<path d="M30.3776 33.0923H42.1743V44.504H30.3776V33.0923Z" fill="#EBF1FF"/>
</g>
</g>
<mask id="mask10_1_515" style="mask-type:luminance" maskUnits="userSpaceOnUse" x="18" y="0" width="14" height="27">
<path d="M18.5525 0.729767H31.9793V26.9179H18.5525V0.729767Z" fill="white"/>
</mask>
<g mask="url(#mask10_1_515)">
<mask id="mask11_1_515" style="mask-type:luminance" maskUnits="userSpaceOnUse" x="18" y="0" width="14" height="27">
<path d="M31.879 0.765625L27.6042 2.90399L18.5919 26.8799L25.7406 26.0249L31.879 0.765625Z" fill="white"/>
</mask>
<g mask="url(#mask11_1_515)">
<path d="M18.0026 0.197754H46.1742V27.4498H18.0026V0.197754Z" fill="#EBF1FF"/>
</g>
</g>
<mask id="mask12_1_515" style="mask-type:luminance" maskUnits="userSpaceOnUse" x="32" y="0" width="14" height="27">
<path d="M32.3088 0.729767H45.6243V26.9179H32.3088V0.729767Z" fill="white"/>
</mask>
<g mask="url(#mask12_1_515)">
<mask id="mask13_1_515" style="mask-type:luminance" maskUnits="userSpaceOnUse" x="32" y="0" width="14" height="27">
<path d="M38.4625 26.0186L45.6047 26.8799L36.6208 2.90399L32.3241 0.765625L38.4625 26.0186Z" fill="white"/>
</mask>
<g mask="url(#mask13_1_515)">
<path d="M18.0026 0.197754H46.1742V27.4498H18.0026V0.197754Z" fill="#EBF1FF"/>
</g>
</g>
<mask id="mask14_1_515" style="mask-type:luminance" maskUnits="userSpaceOnUse" x="31" y="0" width="2" height="2">
<path d="M31.4294 0.729767H32.7496V1.90133H31.4294V0.729767Z" fill="white"/>
</mask>
<g mask="url(#mask14_1_515)">
<mask id="mask15_1_515" style="mask-type:luminance" maskUnits="userSpaceOnUse" x="31" y="0" width="2" height="2">
<path d="M31.8789 0.765625L31.5276 1.85486H32.6383L32.3241 0.765625H31.8789Z" fill="white"/>
</mask>
<g mask="url(#mask15_1_515)">
<path d="M18.0026 0.197754H46.1742V27.4498H18.0026V0.197754Z" fill="#EBF1FF"/>
</g>
</g>
<mask id="mask16_1_515" style="mask-type:luminance" maskUnits="userSpaceOnUse" x="24" y="20" width="9" height="7">
<path d="M24.165 20.2115H32.1997V26.2783H24.165V20.2115Z" fill="white"/>
</mask>
<g mask="url(#mask16_1_515)">
<mask id="mask17_1_515" style="mask-type:luminance" maskUnits="userSpaceOnUse" x="24" y="20" width="9" height="7">
<path d="M32.1081 20.2727L25.1601 21.1065L24.248 26.2001L32.1081 25.2545V20.2727Z" fill="white"/>
</mask>
<g mask="url(#mask17_1_515)">
<path d="M18.0026 0.197754H46.1742V27.4498H18.0026V0.197754Z" fill="#EBF1FF"/>
</g>
</g>
<mask id="mask18_1_515" style="mask-type:luminance" maskUnits="userSpaceOnUse" x="32" y="14" width="8" height="7">
<path d="M32.0884 14.4612H39.1324V20.3169H32.0884V14.4612Z" fill="white"/>
</mask>
<g mask="url(#mask18_1_515)">
<mask id="mask19_1_515" style="mask-type:luminance" maskUnits="userSpaceOnUse" x="32" y="14" width="8" height="7">
<path d="M32.1081 15.2761V20.26L39.0888 19.4219L38.4844 14.5098L32.1081 15.2761Z" fill="white"/>
</mask>
<g mask="url(#mask19_1_515)">
<path d="M18.0026 0.197754H46.1742V27.4498H18.0026V0.197754Z" fill="#EBF1FF"/>
</g>
</g>
<mask id="mask20_1_515" style="mask-type:luminance" maskUnits="userSpaceOnUse" x="45" y="33" width="19" height="12">
<path d="M45.046 33.2506H63.5506V44.3456H45.046V33.2506Z" fill="white"/>
</mask>
<g mask="url(#mask20_1_515)">
<mask id="mask21_1_515" style="mask-type:luminance" maskUnits="userSpaceOnUse" x="45" y="33" width="19" height="12">
<path d="M45.046 33.2506H47.7497L50.3705 41.175L52.8952 33.2506H55.6796L58.2197 41.175L60.8251 33.2506H63.5288L59.6795 44.3456H56.7445L54.2874 36.8645L51.8303 44.3456H48.8975L45.046 33.2506Z" fill="white"/>
</mask>
<g mask="url(#mask21_1_515)">
<path d="M45.046 33.2506H63.5506V44.3456H45.046V33.2506Z" fill="#EBF1FF"/>
</g>
</g>
<path d="M12.0364 47.683C12.1586 47.7125 12.2503 47.7653 12.3157 47.8434C12.379 47.9173 12.4118 48.0123 12.4118 48.1305C12.4118 48.2888 12.3528 48.4092 12.2372 48.4936C12.1193 48.5738 11.9491 48.6118 11.7222 48.6118H10.8668V46.8133H11.6611C11.8706 46.8133 12.0299 46.8555 12.1412 46.9399C12.2568 47.0202 12.3157 47.132 12.3157 47.2777C12.3157 47.379 12.2896 47.4635 12.2372 47.531C12.1892 47.5986 12.1237 47.6492 12.0364 47.683ZM11.0588 46.9737V47.6239H11.6524C11.8029 47.6239 11.9186 47.5964 12.0015 47.5395C12.0822 47.4846 12.1237 47.4022 12.1237 47.2946C12.1237 47.1933 12.0822 47.1152 12.0015 47.0582C11.9186 47.0033 11.8029 46.9737 11.6524 46.9737H11.0588ZM11.7135 48.4514C11.8815 48.4514 12.0059 48.426 12.0888 48.3754C12.1761 48.3205 12.2197 48.2318 12.2197 48.1136C12.2197 47.8941 12.0495 47.7843 11.7135 47.7843H11.0588V48.4514H11.7135Z" fill="#DA693C"/>
<path d="M14.2363 48.6287C13.9963 48.6287 13.8108 48.5611 13.6777 48.426C13.5424 48.2909 13.4769 48.0967 13.4769 47.8434V46.8133H13.6689V47.835C13.6689 48.044 13.7169 48.2023 13.8173 48.3078C13.9155 48.4092 14.0552 48.4598 14.2363 48.4598C14.4218 48.4598 14.5636 48.4092 14.664 48.3078C14.7622 48.2023 14.8124 48.044 14.8124 47.835V46.8133H15.0044V47.8434C15.0044 48.0967 14.9368 48.2909 14.8037 48.426C14.6684 48.5611 14.4807 48.6287 14.2363 48.6287Z" fill="#DA693C"/>
<path d="M16.2227 46.8133H16.4153V48.6118H16.2227V46.8133Z" fill="#DA693C"/>
<path d="M17.652 46.8133H17.844V48.4514H18.8827V48.6118H17.652V46.8133Z" fill="#DA693C"/>
<path d="M19.8421 46.8133H20.5928C20.7892 46.8133 20.9638 46.8534 21.1165 46.9315C21.2671 47.0054 21.3827 47.113 21.4657 47.2524C21.5464 47.3875 21.5879 47.5437 21.5879 47.7168C21.5879 47.892 21.5464 48.0461 21.4657 48.1812C21.3827 48.3163 21.2671 48.4239 21.1165 48.502C20.9638 48.5759 20.7892 48.6118 20.5928 48.6118H19.8421V46.8133ZM20.5841 48.4514C20.7456 48.4514 20.8896 48.4218 21.0118 48.3585C21.134 48.2909 21.2256 48.2044 21.2911 48.0967C21.3609 47.9849 21.3958 47.8582 21.3958 47.7168C21.3958 47.5711 21.3609 47.4445 21.2911 47.3368C21.2256 47.2249 21.134 47.1384 21.0118 47.075C20.8896 47.0138 20.7456 46.9822 20.5841 46.9822H20.0342V48.4514H20.5841Z" fill="#DA693C"/>
<path d="M22.6606 46.8133H22.8532V48.6118H22.6606V46.8133Z" fill="#DA693C"/>
<path d="M25.6349 46.8133V48.6118H25.4778L24.2819 47.151V48.6118H24.0899V46.8133H24.247L25.4428 48.2741V46.8133H25.6349Z" fill="#DA693C"/>
<path d="M28.1832 47.7168H28.3665V48.4007C28.2792 48.4746 28.1745 48.5316 28.0523 48.5696C27.9344 48.6097 27.8122 48.6287 27.6857 48.6287C27.498 48.6287 27.33 48.5907 27.1794 48.5105C27.0332 48.4324 26.9176 48.3226 26.8303 48.1812C26.7473 48.0419 26.7081 47.8857 26.7081 47.7168C26.7081 47.5437 26.7473 47.3854 26.8303 47.2439C26.9176 47.1046 27.0332 46.9948 27.1794 46.9146C27.33 46.8365 27.498 46.7964 27.6857 46.7964C27.8297 46.7964 27.9606 46.8196 28.0785 46.864C28.1941 46.9104 28.2923 46.9737 28.3752 47.0582L28.253 47.1764C28.1068 47.0371 27.9213 46.9653 27.6944 46.9653C27.5417 46.9653 27.4064 46.9991 27.2842 47.0666C27.1663 47.1299 27.0747 47.2186 27.0048 47.3368C26.935 47.4508 26.9001 47.5775 26.9001 47.7168C26.9001 47.8582 26.935 47.9849 27.0048 48.0967C27.0747 48.2107 27.1663 48.2994 27.2842 48.3669C27.4064 48.4303 27.5417 48.4598 27.6944 48.4598C27.8864 48.4598 28.0479 48.4134 28.1832 48.3163V47.7168Z" fill="#DA693C"/>
<path d="M31.3813 48.6287C31.246 48.6287 31.1151 48.6097 30.9885 48.5696C30.8598 48.5253 30.7616 48.4662 30.6918 48.3923L30.7703 48.2487C30.8402 48.3121 30.9296 48.3648 31.0409 48.4092C31.15 48.4493 31.2635 48.4683 31.3813 48.4683C31.5494 48.4683 31.6737 48.4408 31.7567 48.3838C31.8374 48.3226 31.8789 48.2445 31.8789 48.1474C31.8789 48.0756 31.8549 48.0186 31.809 47.9785C31.7676 47.9342 31.713 47.9004 31.6432 47.8772C31.5777 47.8561 31.4883 47.8308 31.3726 47.8012C31.2329 47.7674 31.1217 47.7379 31.0409 47.7083C30.958 47.6746 30.886 47.6281 30.8227 47.5648C30.7638 47.4972 30.7354 47.4086 30.7354 47.2946C30.7354 47.2059 30.7572 47.1236 30.8052 47.0497C30.8576 46.9716 30.9362 46.9104 31.0409 46.864C31.1457 46.8196 31.2722 46.7964 31.425 46.7964C31.5297 46.7964 31.6301 46.8112 31.7305 46.8386C31.8352 46.8682 31.9247 46.9062 32.0011 46.9568L31.9312 47.1088C31.8549 47.0582 31.7698 47.0223 31.6781 46.9991C31.5908 46.978 31.5057 46.9653 31.425 46.9653C31.2613 46.9653 31.1391 46.997 31.0584 47.0582C30.9755 47.1152 30.9362 47.1912 30.9362 47.2862C30.9362 47.36 30.9558 47.4191 30.9973 47.4635C31.0431 47.5036 31.102 47.5374 31.1718 47.5648C31.2417 47.588 31.3311 47.6112 31.4424 47.6323C31.5821 47.6661 31.6912 47.6999 31.7741 47.7337C31.8614 47.7674 31.9334 47.816 31.9923 47.8772C32.0491 47.9405 32.0796 48.0271 32.0796 48.139C32.0796 48.2297 32.0534 48.3121 32.0011 48.3838C31.9487 48.4577 31.8701 48.5168 31.7654 48.5611C31.6606 48.6076 31.5319 48.6287 31.3813 48.6287Z" fill="#DA693C"/>
<path d="M33.9459 48.6287C33.7582 48.6287 33.5902 48.5907 33.4396 48.5105C33.2934 48.4324 33.1778 48.3226 33.0905 48.1812C33.0076 48.0419 32.9683 47.8857 32.9683 47.7168C32.9683 47.5437 33.0076 47.3875 33.0905 47.2524C33.1778 47.1131 33.2934 47.0033 33.4396 46.9231C33.5902 46.8386 33.7582 46.7964 33.9459 46.7964C34.1248 46.7964 34.2885 46.8365 34.4347 46.9146C34.5853 46.9948 34.7009 47.1046 34.7838 47.2439C34.8711 47.3854 34.9148 47.5437 34.9148 47.7168C34.9148 47.8857 34.8711 48.0419 34.7838 48.1812C34.7009 48.3226 34.5853 48.4324 34.4347 48.5105C34.2885 48.5907 34.1248 48.6287 33.9459 48.6287ZM33.9459 48.4598C34.0899 48.4598 34.2208 48.4303 34.3387 48.3669C34.4609 48.2994 34.5525 48.2107 34.618 48.0967C34.6878 47.9849 34.7227 47.8582 34.7227 47.7168C34.7227 47.5775 34.6878 47.4508 34.618 47.3368C34.5525 47.2186 34.4609 47.1299 34.3387 47.0666C34.2208 46.9991 34.0899 46.9653 33.9459 46.9653C33.7931 46.9653 33.6579 46.9991 33.5357 47.0666C33.4178 47.1299 33.3262 47.2186 33.2563 47.3368C33.1909 47.4508 33.1603 47.5775 33.1603 47.7168C33.1603 47.8582 33.1909 47.9849 33.2563 48.0967C33.3262 48.2107 33.4178 48.2994 33.5357 48.3669C33.6579 48.4303 33.7931 48.4598 33.9459 48.4598Z" fill="#DA693C"/>
<path d="M35.987 46.8133H36.1791V48.4514H37.2178V48.6118H35.987V46.8133Z" fill="#DA693C"/>
<path d="M38.9191 48.6287C38.6791 48.6287 38.4936 48.5611 38.3605 48.426C38.2252 48.2909 38.1597 48.0967 38.1597 47.8434V46.8133H38.3518V47.835C38.3518 48.044 38.3998 48.2023 38.5001 48.3078C38.5983 48.4092 38.738 48.4598 38.9191 48.4598C39.1046 48.4598 39.2464 48.4092 39.3468 48.3078C39.445 48.2023 39.4952 48.044 39.4952 47.835V46.8133H39.6872V47.8434C39.6872 48.0967 39.6196 48.2909 39.4865 48.426C39.3512 48.5611 39.1635 48.6287 38.9191 48.6287Z" fill="#DA693C"/>
<path d="M41.2634 46.9822H40.6087V46.8133H42.1101V46.9822H41.4554V48.6118H41.2634V46.9822Z" fill="#DA693C"/>
<path d="M43.0559 46.8133H43.2485V48.6118H43.0559V46.8133Z" fill="#DA693C"/>
<path d="M45.2969 48.6287C45.1093 48.6287 44.9412 48.5907 44.7907 48.5105C44.6445 48.4324 44.5288 48.3226 44.4415 48.1812C44.3586 48.0419 44.3193 47.8857 44.3193 47.7168C44.3193 47.5437 44.3586 47.3875 44.4415 47.2524C44.5288 47.1131 44.6445 47.0033 44.7907 46.9231C44.9412 46.8386 45.1093 46.7964 45.2969 46.7964C45.4759 46.7964 45.6395 46.8365 45.7857 46.9146C45.9363 46.9948 46.052 47.1046 46.1349 47.2439C46.2222 47.3854 46.2658 47.5437 46.2658 47.7168C46.2658 47.8857 46.2222 48.0419 46.1349 48.1812C46.052 48.3226 45.9363 48.4324 45.7857 48.5105C45.6395 48.5907 45.4759 48.6287 45.2969 48.6287ZM45.2969 48.4598C45.441 48.4598 45.5719 48.4303 45.6897 48.3669C45.8119 48.2994 45.9036 48.2107 45.969 48.0967C46.0389 47.9849 46.0738 47.8582 46.0738 47.7168C46.0738 47.5775 46.0389 47.4508 45.969 47.3368C45.9036 47.2186 45.8119 47.1299 45.6897 47.0666C45.5719 46.9991 45.441 46.9653 45.2969 46.9653C45.1442 46.9653 45.0089 46.9991 44.8867 47.0666C44.7689 47.1299 44.6772 47.2186 44.6074 47.3368C44.5419 47.4508 44.5114 47.5775 44.5114 47.7168C44.5114 47.8582 44.5419 47.9849 44.6074 48.0967C44.6772 48.2107 44.7689 48.2994 44.8867 48.3669C45.0089 48.4303 45.1442 48.4598 45.2969 48.4598Z" fill="#DA693C"/>
<path d="M48.883 46.8133V48.6118H48.7259L47.5301 47.151V48.6118H47.3381V46.8133H47.4952L48.691 48.2741V46.8133H48.883Z" fill="#DA693C"/>
<path d="M50.6283 48.6287C50.493 48.6287 50.3621 48.6097 50.2355 48.5696C50.1068 48.5253 50.0086 48.4662 49.9388 48.3923L50.0173 48.2487C50.0871 48.3121 50.1766 48.3648 50.2879 48.4092C50.397 48.4493 50.5105 48.4683 50.6283 48.4683C50.7963 48.4683 50.9207 48.4408 51.0036 48.3838C51.0844 48.3226 51.1258 48.2445 51.1258 48.1474C51.1258 48.0756 51.1018 48.0186 51.056 47.9785C51.0146 47.9342 50.96 47.9004 50.8902 47.8772C50.8247 47.8561 50.7352 47.8308 50.6196 47.8012C50.4799 47.7674 50.3686 47.7379 50.2879 47.7083C50.205 47.6746 50.133 47.6281 50.0697 47.5648C50.0108 47.4972 49.9824 47.4086 49.9824 47.2946C49.9824 47.2059 50.0042 47.1236 50.0522 47.0497C50.1046 46.9716 50.1832 46.9104 50.2879 46.864C50.3926 46.8196 50.5192 46.7964 50.672 46.7964C50.7767 46.7964 50.8771 46.8112 50.9775 46.8386C51.0822 46.8682 51.1717 46.9062 51.248 46.9568L51.1782 47.1088C51.1018 47.0582 51.0167 47.0223 50.9251 46.9991C50.8378 46.978 50.7527 46.9653 50.672 46.9653C50.5083 46.9653 50.3861 46.997 50.3054 47.0582C50.2224 47.1152 50.1832 47.1912 50.1832 47.2862C50.1832 47.36 50.2028 47.4191 50.2443 47.4635C50.2901 47.5036 50.349 47.5374 50.4188 47.5648C50.4887 47.588 50.5781 47.6112 50.6894 47.6323C50.8291 47.6661 50.9382 47.6999 51.0211 47.7337C51.1084 47.7674 51.1804 47.816 51.2393 47.8772C51.296 47.9405 51.3266 48.0271 51.3266 48.139C51.3266 48.2297 51.3004 48.3121 51.248 48.3838C51.1957 48.4577 51.1171 48.5168 51.0124 48.5611C50.9076 48.6076 50.7789 48.6287 50.6283 48.6287Z" fill="#DA693C"/>
</svg>
