<svg width="69" height="57" viewBox="0 0 69 57" fill="none" xmlns="http://www.w3.org/2000/svg">
<mask id="mask0_1_343" style="mask-type:luminance" maskUnits="userSpaceOnUse" x="2" y="36" width="14" height="12">
<path d="M2.48648 36.2506H15.6143V47.3899H2.48648V36.2506Z" fill="white"/>
</mask>
<g mask="url(#mask0_1_343)">
<mask id="mask1_1_343" style="mask-type:luminance" maskUnits="userSpaceOnUse" x="2" y="36" width="14" height="12">
<path d="M7.56435 36.2506L2.48648 47.3456H5.27091L6.10667 45.4922H11.957L12.7928 47.3456H15.5794L10.4993 36.2506H7.56435ZM9.03948 38.9441L10.9074 43.1132H7.17374L9.03948 38.9441Z" fill="white"/>
</mask>
<g mask="url(#mask1_1_343)">
<path d="M2.48648 36.2506H15.5685V47.3456H2.48648V36.2506Z" fill="#0D192D"/>
</g>
</g>
<mask id="mask2_1_343" style="mask-type:luminance" maskUnits="userSpaceOnUse" x="19" y="36" width="3" height="12">
<path d="M19.0228 36.2548H21.6501V47.3604H19.0228V36.2548Z" fill="white"/>
</mask>
<g mask="url(#mask2_1_343)">
<path d="M18.4336 35.6849H29.999V47.9219H18.4336V35.6849Z" fill="#0D192D"/>
</g>
<mask id="mask3_1_343" style="mask-type:luminance" maskUnits="userSpaceOnUse" x="24" y="36" width="6" height="7">
<path d="M24.6681 36.2548H29.4099V42.7649H24.6681V36.2548Z" fill="white"/>
</mask>
<g mask="url(#mask3_1_343)">
<mask id="mask4_1_343" style="mask-type:luminance" maskUnits="userSpaceOnUse" x="24" y="36" width="6" height="7">
<path d="M27.2103 36.2865L24.6877 37.0422L26.7237 42.7523L29.4099 42.423L27.2103 36.2865Z" fill="white"/>
</mask>
<g mask="url(#mask4_1_343)">
<path d="M18.4337 35.6849H29.9991V47.9219H18.4337V35.6849Z" fill="#0D192D"/>
</g>
</g>
<mask id="mask5_1_343" style="mask-type:luminance" maskUnits="userSpaceOnUse" x="24" y="42" width="5" height="6">
<path d="M24.1247 42.7206H28.5064V47.3541H24.1247V42.7206Z" fill="white"/>
</mask>
<g mask="url(#mask5_1_343)">
<mask id="mask6_1_343" style="mask-type:luminance" maskUnits="userSpaceOnUse" x="24" y="42" width="5" height="6">
<path d="M26.7325 42.7565L24.1597 43.0689L25.6261 47.3393L28.5022 47.3499L26.7325 42.7565Z" fill="white"/>
</mask>
<g mask="url(#mask6_1_343)">
<path d="M18.4337 35.6849H29.9991V47.9219H18.4337V35.6849Z" fill="#0D192D"/>
</g>
</g>
<mask id="mask7_1_343" style="mask-type:luminance" maskUnits="userSpaceOnUse" x="21" y="36" width="7" height="3">
<path d="M21.1657 36.2696H27.2038V38.6233H21.1657V36.2696Z" fill="white"/>
</mask>
<g mask="url(#mask7_1_343)">
<path d="M18.4336 35.6849H29.999V47.9219H18.4336V35.6849Z" fill="#0D192D"/>
</g>
<mask id="mask8_1_343" style="mask-type:luminance" maskUnits="userSpaceOnUse" x="32" y="36" width="13" height="12">
<path d="M32.3776 36.0923H44.2223V47.504H32.3776V36.0923Z" fill="white"/>
</mask>
<g mask="url(#mask8_1_343)">
<mask id="mask9_1_343" style="mask-type:luminance" maskUnits="userSpaceOnUse" x="32" y="36" width="13" height="12">
<path d="M35.0005 41.7981C35.0005 42.9549 35.2624 43.812 35.7861 44.3355C36.2946 44.8569 37.1303 45.1271 38.2759 45.1271C39.4238 45.1271 40.2595 44.8569 40.7832 44.3355C41.2917 43.812 41.5535 42.957 41.5535 41.7981C41.5535 40.6392 41.2917 39.7843 40.7832 39.2608C40.2595 38.7394 39.4238 38.4692 38.2759 38.4692C37.1303 38.4692 36.2946 38.7394 35.7861 39.2608C35.2624 39.7843 35.0005 40.6392 35.0005 41.7981ZM38.2759 36.0923C40.3424 36.0923 41.8481 36.5356 42.7821 37.4391C43.7161 38.3426 44.1765 39.7991 44.1765 41.796C44.1765 43.7951 43.7182 45.2368 42.7821 46.1403C41.8481 47.0459 40.3424 47.504 38.2759 47.504C36.2116 47.504 34.7212 47.0459 33.7873 46.1403C32.8533 45.2368 32.3776 43.7951 32.3776 41.7981C32.3776 39.8012 32.8533 38.3426 33.7873 37.4391C34.7234 36.5335 36.2116 36.0923 38.2759 36.0923Z" fill="white"/>
</mask>
<g mask="url(#mask9_1_343)">
<path d="M32.3776 36.0923H44.1743V47.504H32.3776V36.0923Z" fill="#0D192D"/>
</g>
</g>
<mask id="mask10_1_343" style="mask-type:luminance" maskUnits="userSpaceOnUse" x="20" y="3" width="14" height="27">
<path d="M20.5525 3.72977H33.9793V29.9179H20.5525V3.72977Z" fill="white"/>
</mask>
<g mask="url(#mask10_1_343)">
<mask id="mask11_1_343" style="mask-type:luminance" maskUnits="userSpaceOnUse" x="20" y="3" width="14" height="27">
<path d="M33.879 3.76562L29.6042 5.90399L20.5919 29.8799L27.7406 29.0249L33.879 3.76562Z" fill="white"/>
</mask>
<g mask="url(#mask11_1_343)">
<path d="M20.0026 3.19775H48.1742V30.4498H20.0026V3.19775Z" fill="#1C3578"/>
</g>
</g>
<mask id="mask12_1_343" style="mask-type:luminance" maskUnits="userSpaceOnUse" x="34" y="3" width="14" height="27">
<path d="M34.3088 3.72977H47.6243V29.9179H34.3088V3.72977Z" fill="white"/>
</mask>
<g mask="url(#mask12_1_343)">
<mask id="mask13_1_343" style="mask-type:luminance" maskUnits="userSpaceOnUse" x="34" y="3" width="14" height="27">
<path d="M40.4625 29.0186L47.6047 29.8799L38.6208 5.90399L34.3241 3.76562L40.4625 29.0186Z" fill="white"/>
</mask>
<g mask="url(#mask13_1_343)">
<path d="M20.0026 3.19775H48.1742V30.4498H20.0026V3.19775Z" fill="#1C3578"/>
</g>
</g>
<mask id="mask14_1_343" style="mask-type:luminance" maskUnits="userSpaceOnUse" x="33" y="3" width="2" height="2">
<path d="M33.4294 3.72977H34.7496V4.90133H33.4294V3.72977Z" fill="white"/>
</mask>
<g mask="url(#mask14_1_343)">
<mask id="mask15_1_343" style="mask-type:luminance" maskUnits="userSpaceOnUse" x="33" y="3" width="2" height="2">
<path d="M33.8789 3.76562L33.5276 4.85486H34.6383L34.3241 3.76562H33.8789Z" fill="white"/>
</mask>
<g mask="url(#mask15_1_343)">
<path d="M20.0026 3.19775H48.1742V30.4498H20.0026V3.19775Z" fill="#1C3578"/>
</g>
</g>
<mask id="mask16_1_343" style="mask-type:luminance" maskUnits="userSpaceOnUse" x="26" y="23" width="9" height="7">
<path d="M26.165 23.2115H34.1997V29.2783H26.165V23.2115Z" fill="white"/>
</mask>
<g mask="url(#mask16_1_343)">
<mask id="mask17_1_343" style="mask-type:luminance" maskUnits="userSpaceOnUse" x="26" y="23" width="9" height="7">
<path d="M34.1081 23.2727L27.1601 24.1065L26.248 29.2001L34.1081 28.2545V23.2727Z" fill="white"/>
</mask>
<g mask="url(#mask17_1_343)">
<path d="M20.0026 3.19775H48.1742V30.4498H20.0026V3.19775Z" fill="#1C3578"/>
</g>
</g>
<mask id="mask18_1_343" style="mask-type:luminance" maskUnits="userSpaceOnUse" x="34" y="17" width="8" height="7">
<path d="M34.0884 17.4612H41.1324V23.3169H34.0884V17.4612Z" fill="white"/>
</mask>
<g mask="url(#mask18_1_343)">
<mask id="mask19_1_343" style="mask-type:luminance" maskUnits="userSpaceOnUse" x="34" y="17" width="8" height="7">
<path d="M34.1081 18.2761V23.26L41.0888 22.4219L40.4844 17.5098L34.1081 18.2761Z" fill="white"/>
</mask>
<g mask="url(#mask19_1_343)">
<path d="M20.0026 3.19775H48.1742V30.4498H20.0026V3.19775Z" fill="#1C3578"/>
</g>
</g>
<mask id="mask20_1_343" style="mask-type:luminance" maskUnits="userSpaceOnUse" x="47" y="36" width="19" height="12">
<path d="M47.046 36.2506H65.5506V47.3456H47.046V36.2506Z" fill="white"/>
</mask>
<g mask="url(#mask20_1_343)">
<mask id="mask21_1_343" style="mask-type:luminance" maskUnits="userSpaceOnUse" x="47" y="36" width="19" height="12">
<path d="M47.046 36.2506H49.7497L52.3705 44.175L54.8952 36.2506H57.6796L60.2197 44.175L62.8251 36.2506H65.5288L61.6795 47.3456H58.7445L56.2874 39.8645L53.8303 47.3456H50.8975L47.046 36.2506Z" fill="white"/>
</mask>
<g mask="url(#mask21_1_343)">
<path d="M47.046 36.2506H65.5506V47.3456H47.046V36.2506Z" fill="#0D192D"/>
</g>
</g>
<path d="M14.0364 50.683C14.1586 50.7125 14.2503 50.7653 14.3157 50.8434C14.379 50.9173 14.4118 51.0123 14.4118 51.1305C14.4118 51.2888 14.3528 51.4092 14.2372 51.4936C14.1193 51.5738 13.9491 51.6118 13.7222 51.6118H12.8668V49.8133H13.6611C13.8706 49.8133 14.0299 49.8555 14.1412 49.9399C14.2568 50.0202 14.3157 50.132 14.3157 50.2777C14.3157 50.379 14.2896 50.4635 14.2372 50.531C14.1892 50.5986 14.1237 50.6492 14.0364 50.683ZM13.0588 49.9737V50.6239H13.6524C13.8029 50.6239 13.9186 50.5964 14.0015 50.5395C14.0822 50.4846 14.1237 50.4022 14.1237 50.2946C14.1237 50.1933 14.0822 50.1152 14.0015 50.0582C13.9186 50.0033 13.8029 49.9737 13.6524 49.9737H13.0588ZM13.7135 51.4514C13.8815 51.4514 14.0059 51.426 14.0888 51.3754C14.1761 51.3205 14.2197 51.2318 14.2197 51.1136C14.2197 50.8941 14.0495 50.7843 13.7135 50.7843H13.0588V51.4514H13.7135Z" fill="#DA693C"/>
<path d="M16.2363 51.6287C15.9963 51.6287 15.8108 51.5611 15.6777 51.426C15.5424 51.2909 15.4769 51.0967 15.4769 50.8434V49.8133H15.669V50.835C15.669 51.044 15.717 51.2023 15.8173 51.3078C15.9155 51.4092 16.0552 51.4598 16.2363 51.4598C16.4218 51.4598 16.5636 51.4092 16.664 51.3078C16.7622 51.2023 16.8124 51.044 16.8124 50.835V49.8133H17.0044V50.8434C17.0044 51.0967 16.9368 51.2909 16.8037 51.426C16.6684 51.5611 16.4807 51.6287 16.2363 51.6287Z" fill="#DA693C"/>
<path d="M18.2227 49.8133H18.4153V51.6118H18.2227V49.8133Z" fill="#DA693C"/>
<path d="M19.652 49.8133H19.844V51.4514H20.8827V51.6118H19.652V49.8133Z" fill="#DA693C"/>
<path d="M21.8421 49.8133H22.5928C22.7892 49.8133 22.9638 49.8534 23.1165 49.9315C23.2671 50.0054 23.3827 50.113 23.4657 50.2524C23.5464 50.3875 23.5879 50.5437 23.5879 50.7168C23.5879 50.892 23.5464 51.0461 23.4657 51.1812C23.3827 51.3163 23.2671 51.4239 23.1165 51.502C22.9638 51.5759 22.7892 51.6118 22.5928 51.6118H21.8421V49.8133ZM22.5841 51.4514C22.7456 51.4514 22.8896 51.4218 23.0118 51.3585C23.134 51.2909 23.2256 51.2044 23.2911 51.0967C23.3609 50.9849 23.3958 50.8582 23.3958 50.7168C23.3958 50.5711 23.3609 50.4445 23.2911 50.3368C23.2256 50.2249 23.134 50.1384 23.0118 50.075C22.8896 50.0138 22.7456 49.9822 22.5841 49.9822H22.0342V51.4514H22.5841Z" fill="#DA693C"/>
<path d="M24.6606 49.8133H24.8532V51.6118H24.6606V49.8133Z" fill="#DA693C"/>
<path d="M27.6349 49.8133V51.6118H27.4778L26.2819 50.151V51.6118H26.0899V49.8133H26.247L27.4428 51.2741V49.8133H27.6349Z" fill="#DA693C"/>
<path d="M30.1832 50.7168H30.3665V51.4007C30.2792 51.4746 30.1745 51.5316 30.0523 51.5696C29.9344 51.6097 29.8122 51.6287 29.6857 51.6287C29.498 51.6287 29.33 51.5907 29.1794 51.5105C29.0332 51.4324 28.9176 51.3226 28.8303 51.1812C28.7473 51.0419 28.7081 50.8857 28.7081 50.7168C28.7081 50.5437 28.7473 50.3854 28.8303 50.2439C28.9176 50.1046 29.0332 49.9948 29.1794 49.9146C29.33 49.8365 29.498 49.7964 29.6857 49.7964C29.8297 49.7964 29.9606 49.8196 30.0785 49.864C30.1941 49.9104 30.2923 49.9737 30.3752 50.0582L30.253 50.1764C30.1068 50.0371 29.9213 49.9653 29.6944 49.9653C29.5417 49.9653 29.4064 49.9991 29.2842 50.0666C29.1663 50.1299 29.0747 50.2186 29.0048 50.3368C28.935 50.4508 28.9001 50.5775 28.9001 50.7168C28.9001 50.8582 28.935 50.9849 29.0048 51.0967C29.0747 51.2107 29.1663 51.2994 29.2842 51.3669C29.4064 51.4303 29.5417 51.4598 29.6944 51.4598C29.8864 51.4598 30.0479 51.4134 30.1832 51.3163V50.7168Z" fill="#DA693C"/>
<path d="M33.3813 51.6287C33.246 51.6287 33.1151 51.6097 32.9885 51.5696C32.8598 51.5253 32.7616 51.4662 32.6918 51.3923L32.7703 51.2487C32.8402 51.3121 32.9296 51.3648 33.0409 51.4092C33.15 51.4493 33.2635 51.4683 33.3813 51.4683C33.5494 51.4683 33.6737 51.4408 33.7567 51.3838C33.8374 51.3226 33.8789 51.2445 33.8789 51.1474C33.8789 51.0756 33.8549 51.0186 33.809 50.9785C33.7676 50.9342 33.713 50.9004 33.6432 50.8772C33.5777 50.8561 33.4883 50.8308 33.3726 50.8012C33.2329 50.7674 33.1217 50.7379 33.0409 50.7083C32.958 50.6746 32.886 50.6281 32.8227 50.5648C32.7638 50.4972 32.7354 50.4086 32.7354 50.2946C32.7354 50.2059 32.7572 50.1236 32.8052 50.0497C32.8576 49.9716 32.9362 49.9104 33.0409 49.864C33.1457 49.8196 33.2722 49.7964 33.425 49.7964C33.5297 49.7964 33.6301 49.8112 33.7305 49.8386C33.8352 49.8682 33.9247 49.9062 34.0011 49.9568L33.9312 50.1088C33.8549 50.0582 33.7698 50.0223 33.6781 49.9991C33.5908 49.978 33.5057 49.9653 33.425 49.9653C33.2613 49.9653 33.1391 49.997 33.0584 50.0582C32.9755 50.1152 32.9362 50.1912 32.9362 50.2862C32.9362 50.36 32.9558 50.4191 32.9973 50.4635C33.0431 50.5036 33.102 50.5374 33.1718 50.5648C33.2417 50.588 33.3311 50.6112 33.4424 50.6323C33.5821 50.6661 33.6912 50.6999 33.7741 50.7337C33.8614 50.7674 33.9334 50.816 33.9923 50.8772C34.0491 50.9405 34.0796 51.0271 34.0796 51.139C34.0796 51.2297 34.0534 51.3121 34.0011 51.3838C33.9487 51.4577 33.8701 51.5168 33.7654 51.5611C33.6606 51.6076 33.5319 51.6287 33.3813 51.6287Z" fill="#DA693C"/>
<path d="M35.9459 51.6287C35.7582 51.6287 35.5902 51.5907 35.4396 51.5105C35.2934 51.4324 35.1778 51.3226 35.0905 51.1812C35.0076 51.0419 34.9683 50.8857 34.9683 50.7168C34.9683 50.5437 35.0076 50.3875 35.0905 50.2524C35.1778 50.1131 35.2934 50.0033 35.4396 49.9231C35.5902 49.8386 35.7582 49.7964 35.9459 49.7964C36.1248 49.7964 36.2885 49.8365 36.4347 49.9146C36.5853 49.9948 36.7009 50.1046 36.7838 50.2439C36.8711 50.3854 36.9148 50.5437 36.9148 50.7168C36.9148 50.8857 36.8711 51.0419 36.7838 51.1812C36.7009 51.3226 36.5853 51.4324 36.4347 51.5105C36.2885 51.5907 36.1248 51.6287 35.9459 51.6287ZM35.9459 51.4598C36.0899 51.4598 36.2208 51.4303 36.3387 51.3669C36.4609 51.2994 36.5525 51.2107 36.618 51.0967C36.6878 50.9849 36.7227 50.8582 36.7227 50.7168C36.7227 50.5775 36.6878 50.4508 36.618 50.3368C36.5525 50.2186 36.4609 50.1299 36.3387 50.0666C36.2208 49.9991 36.0899 49.9653 35.9459 49.9653C35.7931 49.9653 35.6579 49.9991 35.5357 50.0666C35.4178 50.1299 35.3262 50.2186 35.2563 50.3368C35.1909 50.4508 35.1603 50.5775 35.1603 50.7168C35.1603 50.8582 35.1909 50.9849 35.2563 51.0967C35.3262 51.2107 35.4178 51.2994 35.5357 51.3669C35.6579 51.4303 35.7931 51.4598 35.9459 51.4598Z" fill="#DA693C"/>
<path d="M37.987 49.8133H38.1791V51.4514H39.2178V51.6118H37.987V49.8133Z" fill="#DA693C"/>
<path d="M40.9191 51.6287C40.6791 51.6287 40.4936 51.5611 40.3605 51.426C40.2252 51.2909 40.1597 51.0967 40.1597 50.8434V49.8133H40.3518V50.835C40.3518 51.044 40.3998 51.2023 40.5001 51.3078C40.5983 51.4092 40.738 51.4598 40.9191 51.4598C41.1046 51.4598 41.2464 51.4092 41.3468 51.3078C41.445 51.2023 41.4952 51.044 41.4952 50.835V49.8133H41.6872V50.8434C41.6872 51.0967 41.6196 51.2909 41.4865 51.426C41.3512 51.5611 41.1635 51.6287 40.9191 51.6287Z" fill="#DA693C"/>
<path d="M43.2634 49.9822H42.6087V49.8133H44.1101V49.9822H43.4554V51.6118H43.2634V49.9822Z" fill="#DA693C"/>
<path d="M45.0559 49.8133H45.2485V51.6118H45.0559V49.8133Z" fill="#DA693C"/>
<path d="M47.2969 51.6287C47.1093 51.6287 46.9412 51.5907 46.7907 51.5105C46.6445 51.4324 46.5288 51.3226 46.4415 51.1812C46.3586 51.0419 46.3193 50.8857 46.3193 50.7168C46.3193 50.5437 46.3586 50.3875 46.4415 50.2524C46.5288 50.1131 46.6445 50.0033 46.7907 49.9231C46.9412 49.8386 47.1093 49.7964 47.2969 49.7964C47.4759 49.7964 47.6395 49.8365 47.7857 49.9146C47.9363 49.9948 48.052 50.1046 48.1349 50.2439C48.2222 50.3854 48.2658 50.5437 48.2658 50.7168C48.2658 50.8857 48.2222 51.0419 48.1349 51.1812C48.052 51.3226 47.9363 51.4324 47.7857 51.5105C47.6395 51.5907 47.4759 51.6287 47.2969 51.6287ZM47.2969 51.4598C47.441 51.4598 47.5719 51.4303 47.6897 51.3669C47.8119 51.2994 47.9036 51.2107 47.969 51.0967C48.0389 50.9849 48.0738 50.8582 48.0738 50.7168C48.0738 50.5775 48.0389 50.4508 47.969 50.3368C47.9036 50.2186 47.8119 50.1299 47.6897 50.0666C47.5719 49.9991 47.441 49.9653 47.2969 49.9653C47.1442 49.9653 47.0089 49.9991 46.8867 50.0666C46.7689 50.1299 46.6772 50.2186 46.6074 50.3368C46.5419 50.4508 46.5114 50.5775 46.5114 50.7168C46.5114 50.8582 46.5419 50.9849 46.6074 51.0967C46.6772 51.2107 46.7689 51.2994 46.8867 51.3669C47.0089 51.4303 47.1442 51.4598 47.2969 51.4598Z" fill="#DA693C"/>
<path d="M50.883 49.8133V51.6118H50.7259L49.5301 50.151V51.6118H49.3381V49.8133H49.4952L50.691 51.2741V49.8133H50.883Z" fill="#DA693C"/>
<path d="M52.6283 51.6287C52.493 51.6287 52.3621 51.6097 52.2355 51.5696C52.1068 51.5253 52.0086 51.4662 51.9388 51.3923L52.0173 51.2487C52.0871 51.3121 52.1766 51.3648 52.2879 51.4092C52.397 51.4493 52.5105 51.4683 52.6283 51.4683C52.7963 51.4683 52.9207 51.4408 53.0036 51.3838C53.0844 51.3226 53.1258 51.2445 53.1258 51.1474C53.1258 51.0756 53.1018 51.0186 53.056 50.9785C53.0146 50.9342 52.96 50.9004 52.8902 50.8772C52.8247 50.8561 52.7352 50.8308 52.6196 50.8012C52.4799 50.7674 52.3686 50.7379 52.2879 50.7083C52.205 50.6746 52.133 50.6281 52.0697 50.5648C52.0108 50.4972 51.9824 50.4086 51.9824 50.2946C51.9824 50.2059 52.0042 50.1236 52.0522 50.0497C52.1046 49.9716 52.1832 49.9104 52.2879 49.864C52.3926 49.8196 52.5192 49.7964 52.672 49.7964C52.7767 49.7964 52.8771 49.8112 52.9775 49.8386C53.0822 49.8682 53.1717 49.9062 53.248 49.9568L53.1782 50.1088C53.1018 50.0582 53.0167 50.0223 52.9251 49.9991C52.8378 49.978 52.7527 49.9653 52.672 49.9653C52.5083 49.9653 52.3861 49.997 52.3054 50.0582C52.2224 50.1152 52.1832 50.1912 52.1832 50.2862C52.1832 50.36 52.2028 50.4191 52.2443 50.4635C52.2901 50.5036 52.349 50.5374 52.4188 50.5648C52.4887 50.588 52.5781 50.6112 52.6894 50.6323C52.8291 50.6661 52.9382 50.6999 53.0211 50.7337C53.1084 50.7674 53.1804 50.816 53.2393 50.8772C53.296 50.9405 53.3266 51.0271 53.3266 51.139C53.3266 51.2297 53.3004 51.3121 53.248 51.3838C53.1957 51.4577 53.1171 51.5168 53.0124 51.5611C52.9076 51.6076 52.7789 51.6287 52.6283 51.6287Z" fill="#DA693C"/>
</svg>
